<svg aria-hidden="true" style="position:absolute;width:0;height:0;overflow:hidden" xmlns="http://www.w3.org/2000/svg">
<defs>
<symbol id="icon-figma" viewBox="0 0 21 32">
<path fill="#0acf83" style="fill:var(--color1, #0acf83)" d="M5.335 32a5.335 5.335 0 0 0 5.333-5.333v-5.333H5.335c-2.944 0-5.333 2.389-5.333 5.333S2.391 32 5.335 32z"/>
<path fill="#a259ff" style="fill:var(--color2, #a259ff)" d="M.002 16a5.335 5.335 0 0 1 5.333-5.333h5.333v10.667H5.335a5.335 5.335 0 0 1-5.333-5.333z"/>
<path fill="#f24e1e" style="fill:var(--color3, #f24e1e)" d="M.002 5.333A5.335 5.335 0 0 1 5.335 0h5.333v10.667H5.335A5.335 5.335 0 0 1 .002 5.334z"/>
<path fill="#ff7262" style="fill:var(--color4, #ff7262)" d="M10.669 0h5.333c2.944 0 5.333 2.389 5.333 5.333s-2.389 5.333-5.333 5.333h-5.333z"/>
<path fill="#1abcfe" style="fill:var(--color5, #1abcfe)" d="M21.335 16c0 2.944-2.389 5.333-5.333 5.333S10.669 18.944 10.669 16s2.389-5.333 5.333-5.333 5.333 2.389 5.333 5.333z"/>
</symbol>

<symbol id="icon-PyCharm_Icon" viewBox="0 0 32 32">
<path style="fill:var(--color6, #000)" d="m22.446 5.029 9.326 7.817-3.337 6.811-5.669-1.554H17.92zM13.029 10.103 11.2 19.657l-.183 3.291-4.526 1.966L0 25.6 1.966 4.891 13.669 0l7.223 4.754z"/>
<path style="fill:var(--color6, #000)" d="m13.029 10.103.869 18.469-2.926 3.429-10.971-6.4 9.006-13.44zM25.097 8.731H13.988L23.817 0z"/><path style="fill:var(--color6, #000)" d="m32 28.617-9.783 3.337-12.983-3.657 3.794-18.194 1.509-1.371 7.909-.731-.731 7.954 6.309-2.423z"/><path style="fill:var(--color6, #000)" d="M6.126 6.126h19.749v19.749H6.126V6.126z"/><path fill="#fff" style="fill:var(--color7, #fff)" d="M8 22.171h7.406v1.234H8v-1.234zM7.909 8.731h3.337c1.966 0 3.154 1.143 3.154 2.834v.046c0 1.874-1.463 2.88-3.291 2.88H9.738v2.423H7.955V8.731zm3.245 4.115c.914 0 1.417-.549 1.417-1.234v-.046c0-.823-.549-1.234-1.463-1.234H9.737v2.514h1.417zM15.131 12.846c0-2.331 1.737-4.251 4.251-4.251 1.554 0 2.469.503 3.246 1.28l-1.143 1.326c-.64-.594-1.28-.914-2.103-.914-1.371 0-2.377 1.143-2.377 2.56v-.046c0 1.417.96 2.56 2.377 2.56.914 0 1.509-.366 2.149-.96l1.143 1.143c-.823.914-1.783 1.463-3.337 1.463-2.423.046-4.206-1.829-4.206-4.16z"/></symbol>

<symbol id="icon-visualstudiocode" viewBox="0 0 32 32"><path fill="#007acc" style="fill:var(--color8, #007acc)" d="M30.867 3.449 24.28.28a1.984 1.984 0 0 0-2.273.387L9.394 12.174 3.901 8.003a1.323 1.323 0 0 0-.805-.271c-.346 0-.661.132-.897.348L.437 9.682c-.269.245-.436.596-.436.987s.167.741.434.984l.001.001L5.2 16.001.436 20.348a1.33 1.33 0 0 0 0 1.971l.001.001 1.764 1.601a1.328 1.328 0 0 0 1.704.074l-.003.002 5.493-4.171 12.613 11.507a1.982 1.982 0 0 0 2.284.381l-.012.005 6.589-3.169A2.003 2.003 0 0 0 32 26.749V5.252c0-.789-.457-1.472-1.122-1.797l-.012-.005zm-6.862 19.815L14.434 16l9.571-7.264z"/></symbol>

<symbol id="icon-python" viewBox="0 0 32 32"><path fill="#3776ab" style="fill:var(--color9, #3776ab)" d="m19.08.24 1.2.267.973.347.787.4.6.427.453.453.333.453.213.44.133.4.053.347.027.267-.013.173v7.12l-.067.84-.173.733-.28.613-.347.507-.4.413-.44.333-.467.253-.467.187-.44.133-.4.093-.347.053-.28.027h-7.96l-.92.067-.787.187-.667.293-.547.36-.44.427-.36.467-.267.48-.2.493-.133.467-.093.427-.053.36-.027.28v4.08H4.304l-.28-.04-.373-.093-.427-.16-.467-.24-.48-.347-.48-.48-.467-.613-.427-.787-.373-.973-.28-1.173-.187-1.4-.067-1.64.08-1.627.213-1.387.32-1.16.427-.947.48-.76.533-.587.56-.44.56-.32.533-.213.48-.133.427-.067.32-.013h.213l.08.013h10.88V7.213H8.315l-.013-3.667-.027-.493.067-.453.147-.413.227-.373.333-.347.413-.307.507-.267.587-.24.68-.2.773-.16.853-.133.947-.08 1.027-.053L15.956 0l1.693.067zm-8.4 2.64-.307.44-.107.547.107.547.307.453.44.293.547.12.547-.12.44-.293.307-.453.107-.547-.107-.547-.307-.44-.44-.293-.547-.12-.547.12zm17.453 5.267.373.08.427.16.467.24.48.36.48.467.467.627.427.787.373.973.28 1.173.187 1.387.067 1.64-.08 1.64-.213 1.387-.32 1.147-.427.947-.48.76-.533.6-.56.44-.56.32-.533.213-.48.12-.427.067-.32.027-.213-.013h-10.96v1.093h7.787l.013 3.68.027.48-.067.453-.147.413-.227.387-.333.333-.413.32-.507.267-.587.227-.68.2-.773.173-.853.12-.947.093-1.027.053-1.12.013-1.693-.053-1.427-.187-1.2-.267-.973-.333-.787-.4-.6-.44-.453-.453-.333-.453-.213-.44-.133-.4-.053-.333-.027-.267.013-.173v-7.12l.067-.853.173-.72.28-.613.347-.507.4-.427.44-.32.467-.267.467-.187.44-.133.4-.08.347-.053.28-.027.173-.013h7.787l.92-.067.787-.187.667-.28.547-.373.44-.427.36-.467.267-.48.2-.48.133-.467.093-.427.053-.373.027-.28v-4.08h2.787l.187.013zm-8.626 19-.307.44-.107.547.107.547.307.44.44.307.547.107.547-.107.44-.307.307-.44.107-.547-.107-.547-.307-.44-.44-.307-.547-.107-.547.107z"/></symbol>

<symbol id="icon-webpack" viewBox="0 0 32 32"><path fill="#8dd6f9" style="fill:var(--color10, #8dd6f9)" d="m28.021 24.16-11.553 6.506v-5.068l7.198-3.942zm.79-.712V9.841l-4.228 2.429v8.746zm-24.91.712 11.553 6.506v-5.068l-7.198-3.942zm-.79-.712V9.841l4.228 2.429v8.746zM3.605 8.96l11.849-6.674v4.9l-7.649 4.19zm24.712 0L16.468 2.286v4.9l7.649 4.19zM15.454 24.446l-7.102-3.887v-7.703l7.101 4.083zm1.014 0 7.101-3.887v-7.703l-7.101 4.083zM8.833 11.965l7.129-3.904 7.129 3.904-7.129 4.099z"/></symbol>

<symbol id="icon-node-dot-js" viewBox="0 0 32 32"><path fill="#393" style="fill:var(--color11, #393)" d="M15.997 32c-.428 0-.855-.112-1.229-.329l-3.915-2.316c-.584-.327-.299-.443-.107-.511.78-.271.937-.333 1.771-.805.087-.049.201-.031.291.023l3.008 1.785c.109.06.263.06.363 0l11.727-6.768a.37.37 0 0 0 .179-.317V9.229a.38.38 0 0 0-.183-.323L16.181 2.143a.368.368 0 0 0-.361 0L4.101 8.907a.378.378 0 0 0-.185.321v13.533c0 .129.072.252.185.313l3.212 1.856c1.743.872 2.811-.155 2.811-1.187V10.382c0-.189.152-.337.341-.337h1.487a.34.34 0 0 1 .34.337v13.361c0 2.327-1.267 3.66-3.472 3.66-.677 0-1.212 0-2.701-.735l-3.077-1.769a2.475 2.475 0 0 1-1.229-2.139V9.227c0-.879.471-1.7 1.229-2.137L14.769.314a2.567 2.567 0 0 1 2.464 0L28.958 7.09a2.475 2.475 0 0 1 1.232 2.137V22.76c0 .879-.472 1.697-1.232 2.139L17.233 31.67a2.45 2.45 0 0 1-1.233.329zm9.468-13.343c0-2.533-1.712-3.208-5.316-3.684-3.641-.481-4.012-.731-4.012-1.583 0-.704.313-1.644 3.011-1.644 2.409 0 3.297.519 3.663 2.143a.338.338 0 0 0 .329.265h1.521a.34.34 0 0 0 .337-.369c-.236-2.797-2.095-4.101-5.851-4.101-3.344 0-5.339 1.411-5.339 3.777 0 2.567 1.984 3.276 5.193 3.593 3.84.376 4.137.937 4.137 1.692 0 1.311-1.052 1.869-3.523 1.869-3.103 0-3.785-.779-4.015-2.323a.34.34 0 0 0-.337-.287h-1.516a.336.336 0 0 0-.339.337c0 1.976 1.075 4.331 6.207 4.331 3.717.001 5.848-1.461 5.848-4.017z"/></symbol>

<symbol id="icon-git" viewBox="0 0 32 32"><path fill="#f05032" style="fill:var(--color12, #f05032)" d="M31.395 14.573 17.423.602a2.065 2.065 0 0 0-2.917 0l-2.895 2.9 3.68 3.68a2.452 2.452 0 0 1 3.103 3.121l3.544 3.547a2.451 2.451 0 0 1 2.533 4.052 2.449 2.449 0 0 1-3.467 0 2.46 2.46 0 0 1-.539-2.661l-3.319-3.301v8.7c.235.115.456.271.651.464a2.463 2.463 0 0 1 0 3.467 2.46 2.46 0 0 1-3.479 0 2.445 2.445 0 0 1 0-3.464c.243-.24.516-.421.807-.541v-8.785a2.433 2.433 0 0 1-.8-.535 2.445 2.445 0 0 1-.528-2.679l-3.616-3.633L.6 14.509c-.8.807-.8 2.112 0 2.919l13.973 13.969a2.061 2.061 0 0 0 2.915 0L31.395 17.49a2.059 2.059 0 0 0 0-2.916z"/></symbol>

<symbol id="icon-github" viewBox="0 0 32 32"><path d="M16 .396c-8.84 0-16 7.164-16 16 0 7.071 4.584 13.067 10.94 15.18.8.151 1.093-.344 1.093-.769 0-.38-.013-1.387-.02-2.72-4.451.965-5.389-2.147-5.389-2.147-.728-1.847-1.78-2.34-1.78-2.34-1.449-.992.112-.972.112-.972 1.607.112 2.451 1.648 2.451 1.648 1.427 2.447 3.745 1.74 4.66 1.331.144-1.035.556-1.74 1.013-2.14-3.553-.4-7.288-1.776-7.288-7.907 0-1.747.62-3.173 1.647-4.293-.18-.404-.72-2.031.14-4.235 0 0 1.34-.429 4.4 1.64 1.28-.356 2.64-.532 4-.54 1.36.008 2.72.184 4 .54 3.04-2.069 4.38-1.64 4.38-1.64.86 2.204.32 3.831.16 4.235 1.02 1.12 1.64 2.547 1.64 4.293 0 6.147-3.74 7.5-7.3 7.893.56.48 1.08 1.461 1.08 2.96 0 2.141-.02 3.861-.02 4.381 0 .42.28.92 1.1.76C27.42 29.455 32 23.455 32 16.395c0-8.836-7.164-16-16-16z"/></symbol>

<symbol id="icon-redux" viewBox="0 0 32 32"><path fill="#764abc" style="fill:var(--color13, #764abc)" d="M22.177 22.005c1.159-.1 2.057-1.12 1.999-2.339-.061-1.219-1.06-2.197-2.277-2.197h-.081a2.28 2.28 0 0 0-2.197 2.359c.04.639.301 1.159.659 1.537-1.397 2.717-3.495 4.715-6.672 6.393-2.137 1.117-4.395 1.539-6.592 1.239-1.837-.259-3.275-1.08-4.155-2.397-1.317-1.999-1.437-4.155-.34-6.312.801-1.559 1.999-2.697 2.799-3.257a13.28 13.28 0 0 1-.56-2.056C-1.155 19.211-.553 25.003 1.244 27.74c1.339 1.997 4.076 3.275 7.072 3.275.799 0 1.639-.059 2.457-.259 5.195-.999 9.129-4.115 11.387-8.709zm7.131-4.994c-3.095-3.636-7.651-5.633-12.845-5.633h-.68c-.337-.739-1.116-1.199-1.996-1.199h-.06c-1.257 0-2.237 1.08-2.196 2.337.04 1.197 1.059 2.197 2.277 2.197h.099c.9-.04 1.679-.6 1.997-1.399h.74c3.079 0 5.993.899 8.651 2.656 2.036 1.339 3.496 3.096 4.315 5.195.717 1.717.679 3.396-.06 4.796-1.139 2.196-3.057 3.356-5.593 3.356-1.599 0-3.156-.5-3.956-.859-.479.397-1.279 1.057-1.859 1.457 1.757.797 3.536 1.257 5.253 1.257 3.896 0 6.791-2.196 7.891-4.315 1.197-2.397 1.099-6.432-1.959-9.888zM8.653 22.723c.039 1.199 1.057 2.197 2.277 2.197h.08a2.25 2.25 0 0 0 2.197-2.357c0-1.199-1.039-2.196-2.257-2.196h-.081c-.08 0-.199 0-.3.039-1.657-2.797-2.357-5.795-2.096-9.028.159-2.437.959-4.556 2.396-6.313 1.199-1.499 3.456-2.239 4.995-2.277 4.315-.081 6.113 5.295 6.252 7.432l1.997.599C23.653 4.267 19.58.83 15.684.83c-3.656 0-7.031 2.657-8.391 6.553-1.857 5.195-.639 10.188 1.639 14.184-.199.26-.319.719-.279 1.157z"/></symbol>

<symbol id="icon-react" viewBox="0 0 32 32"><path fill="#61dafb" style="fill:var(--color14, #61dafb)" d="M16 13.148a2.852 2.852 0 0 0 0 5.704 2.852 2.852 0 0 0 0-5.704zm-7.989 8.525-.629-.16C2.691 20.328.001 18.316.001 15.994s2.691-4.333 7.381-5.519l.629-.159.177.624a31.104 31.104 0 0 0 1.899 4.957l-.082-.186.135.284-.135.284a29.368 29.368 0 0 0-1.761 4.551l-.056.22zm-.922-9.74c-3.565 1.001-5.753 2.533-5.753 4.061 0 1.527 2.188 3.059 5.753 4.061a32.611 32.611 0 0 1 1.662-4.263l-.086.202a30.435 30.435 0 0 1-1.511-3.828l-.065-.234zm16.9 9.74-.177-.625a30.782 30.782 0 0 0-1.9-4.954l.081.184-.135-.284.135-.284a29.456 29.456 0 0 0 1.762-4.55l.056-.221.177-.624.631.159c4.689 1.185 7.38 3.197 7.38 5.52s-2.691 4.333-7.38 5.519zm-.654-5.678a33.038 33.038 0 0 1 1.576 4.061c3.567-1.003 5.753-2.535 5.753-4.061 0-1.528-2.188-3.059-5.753-4.061a32.424 32.424 0 0 1-1.662 4.262l.086-.2zM7.08 11.927l-.177-.623C5.584 6.656 5.984 3.325 8 2.163c1.977-1.141 5.152.207 8.479 3.621l.453.465-.453.465a31.6 31.6 0 0 0-3.162 3.853l-.068.103-.18.257-.313.027a31.667 31.667 0 0 0-5.264.86l.218-.047zm2.528-8.84c-.357 0-.673.077-.94.231-1.325.764-1.56 3.42-.647 7.004a31.194 31.194 0 0 1 4.18-.658l.131-.01a33.328 33.328 0 0 1 2.756-3.414l-.02.022c-2.08-2.025-4.049-3.175-5.46-3.175zm12.785 27.149c-.001 0-.001 0 0 0-1.9 0-4.34-1.431-6.872-4.031l-.453-.465.453-.465a31.427 31.427 0 0 0 3.16-3.854l.068-.103.18-.257.312-.027a31.74 31.74 0 0 0 5.267-.858l-.218.046.629-.159.179.624c1.316 4.645.917 7.977-1.099 9.139a3.132 3.132 0 0 1-1.562.411h-.047.002zm-5.461-4.508c2.08 2.025 4.049 3.175 5.46 3.175h.001c.356 0 .673-.077.939-.231 1.325-.764 1.561-3.421.647-7.005a30.933 30.933 0 0 1-4.182.658l-.13.01a33.219 33.219 0 0 1-2.755 3.416l.02-.022zm7.988-13.801-.629-.159c-1.453-.376-3.175-.664-4.939-.806l-.111-.007-.312-.027-.18-.257a31.57 31.57 0 0 0-3.237-3.966l.009.01-.453-.465.453-.465C18.846 2.372 22.02 1.024 24 2.164c2.016 1.163 2.416 4.493 1.099 9.14zm-5.253-2.274c1.523.139 2.969.364 4.312.668.915-3.584.679-6.24-.647-7.004-1.317-.761-3.793.405-6.4 2.944a33.376 33.376 0 0 1 2.666 3.289l.069.103zM9.608 30.236h-.046a3.153 3.153 0 0 1-1.577-.419l.015.008c-2.016-1.161-2.416-4.492-1.097-9.139l.176-.624.629.159c1.54.388 3.239.661 5.047.812l.313.027.179.257a31.521 31.521 0 0 0 3.239 3.967l-.01-.01.453.465-.453.465c-2.531 2.6-4.971 4.031-6.868 4.031zm-1.587-8.569c-.915 3.584-.679 6.241.647 7.005 1.316.751 3.791-.407 6.4-2.944a33.543 33.543 0 0 1-2.667-3.29l-.069-.103a33.315 33.315 0 0 1-4.534-.711l.224.043zm7.979.837c-1.097 0-2.225-.048-3.355-.141l-.313-.027-.18-.257a38.303 38.303 0 0 1-1.697-2.639l-.103-.19a36.12 36.12 0 0 1-1.45-2.728l-.105-.243-.133-.284.133-.284a38.537 38.537 0 0 1 1.658-3.161l-.103.191a40.4 40.4 0 0 1 1.8-2.829l.18-.257.313-.027a40.227 40.227 0 0 1 6.86.011l-.15-.011.312.027.179.257a39.103 39.103 0 0 1 3.252 5.56l.104.24.135.284-.135.284a39.328 39.328 0 0 1-3.439 5.925l.083-.125-.179.257-.312.027a41.083 41.083 0 0 1-3.356.141zm-2.929-1.445c1.973.148 3.885.148 5.86 0a37.57 37.57 0 0 0 2.827-4.836l.101-.228a37.891 37.891 0 0 0-3.012-5.19l.083.126a39.304 39.304 0 0 0-5.992.008l.134-.008a36.95 36.95 0 0 0-2.83 4.84l-.099.224a38.502 38.502 0 0 0 3.014 5.193l-.085-.13z"/></symbol>

<symbol id="icon-javascript" viewBox="0 0 32 32"><path fill="#f7df1e" style="fill:var(--color15, #f7df1e)" d="M0 0h32v32H0zm29.379 24.368c-.233-1.46-1.184-2.687-4.004-3.831-.981-.46-2.072-.78-2.396-1.52-.121-.44-.14-.68-.061-.94.2-.861 1.22-1.12 2.02-.88.52.16 1 .56 1.301 1.2 1.379-.901 1.379-.901 2.34-1.5-.36-.56-.539-.801-.781-1.04-.84-.94-1.959-1.42-3.779-1.379l-.94.119c-.901.22-1.76.7-2.28 1.34-1.52 1.721-1.081 4.721.759 5.961 1.82 1.36 4.481 1.659 4.821 2.94.32 1.56-1.16 2.06-2.621 1.88-1.081-.24-1.68-.781-2.34-1.781l-2.44 1.401c.28.64.6.919 1.08 1.479 2.32 2.341 8.12 2.221 9.161-1.339.039-.12.32-.94.099-2.2zm-11.978-9.66h-2.997c0 2.584-.012 5.152-.012 7.74 0 1.643.084 3.151-.184 3.615-.44.919-1.573.801-2.088.64-.528-.261-.796-.621-1.107-1.14-.084-.14-.147-.261-.169-.261l-2.433 1.5c.407.84 1 1.563 1.765 2.023 1.14.68 2.672.9 4.276.54 1.044-.301 1.944-.921 2.415-1.881.68-1.24.536-2.76.529-4.461.016-2.739 0-5.479 0-8.239z"/></symbol>

<symbol id="icon-sass" viewBox="0 0 32 32"><path fill="#c69" style="fill:var(--color16, #c69)" d="M16 0c8.836 0 16 7.164 16 16s-7.164 16-16 16S0 24.836 0 16 7.164 0 16 0zm-3.18 21.331c.233.86.208 1.664-.032 2.389l-.087.24c-.032.081-.069.16-.104.235a4.492 4.492 0 0 1-.74 1.08c-.931 1.012-2.229 1.396-2.787 1.073-.6-.349-.301-1.78.779-2.92 1.161-1.224 2.827-2.012 2.827-2.012v-.004zM26.035 6.849c-.723-2.844-5.436-3.779-9.896-2.193-2.652.943-5.525 2.424-7.591 4.356-2.457 2.295-2.848 4.295-2.687 5.131.569 2.948 4.609 4.876 6.271 6.307v.008c-.489.24-4.075 2.039-4.915 3.9-.9 1.96.14 3.361.82 3.54 2.1.581 4.26-.48 5.42-2.199 1.12-1.681 1.021-3.841.539-4.901.661-.18 1.44-.26 2.44-.139 2.801.32 3.361 2.08 3.24 2.8-.12.719-.697 1.139-.899 1.259-.2.121-.26.16-.241.241.02.12.121.12.28.1.22-.04 1.461-.6 1.521-1.961.06-1.72-1.581-3.639-4.5-3.6-1.2.021-1.961.121-2.5.341a.479.479 0 0 0-.14-.14c-1.8-1.94-5.14-3.3-5-5.88.04-.94.38-3.419 6.4-6.419 4.94-2.461 8.881-1.78 9.561-.28.977 2.139-2.101 6.12-7.241 6.699-1.96.22-2.98-.539-3.241-.82-.279-.3-.319-.32-.419-.259-.16.08-.06.34 0 .5.16.4.78 1.1 1.861 1.46.939.3 3.24.479 6-.6 3.099-1.199 5.519-4.54 4.819-7.34z"/></symbol>

<symbol id="icon-css3" viewBox="0 0 32 32"><path fill="#1572b6" style="fill:var(--color17, #1572b6)" d="M2 0h28l-2.547 28.751L15.969 32l-11.42-3.251zm22.787 5.884L7.214 5.88l.284 3.496 13.5.003-.34 3.621h-8.853l.32 3.431h8.243l-.488 4.697L16 22.2l-3.941-1.08-.251-2.813h-3.48l.387 5.14 7.287 2.271 7.164-2.04z"/></symbol>

<symbol id="icon-html5" viewBox="0 0 32 32"><path fill="#e34f26" style="fill:var(--color18, #e34f26)" d="M2 0h28l-2.547 28.751L15.969 32 4.55 28.749zm9.375 13-.309-3.624 13.412.004.307-3.496L7.217 5.88l.931 10.68h12.168l-.435 4.568-3.88 1.072-3.94-1.08-.251-2.813H8.331l.44 5.561L16 25.801l7.172-1.924.992-10.876z"/></symbol></defs></svg>