<svg aria-hidden="true" style="position:absolute;width:0;height:0;overflow:hidden" xmlns="http://www.w3.org/2000/svg">
<defs>
<symbol id="discord" viewBox="0 0 32 32">
<path fill="#7289da" style="fill:var(--color1, #7289da)" d="M26.963 0c1.875 0 3.387 1.516 3.476 3.3V32l-3.569-3.031-1.96-1.784-2.139-1.864.893 2.94H4.947c-1.869 0-3.387-1.42-3.387-3.301V3.307C1.56 1.523 3.08.004 4.953.004h22zm-8.158 7.577h-.04l-.269.267c2.764.8 4.101 2.049 4.101 2.049-1.781-.891-3.387-1.336-4.992-1.516-1.16-.18-2.32-.085-3.3 0h-.267c-.627 0-1.96.267-3.747.98-.623.271-.98.448-.98.448s1.336-1.336 4.28-2.049l-.18-.18s-2.229-.085-4.636 1.693c0 0-2.407 4.192-2.407 9.36 0 0 1.333 2.32 4.991 2.408 0 0 .533-.711 1.073-1.336-2.053-.624-2.853-1.872-2.853-1.872s.179.088.447.267h.08c.04 0 .059.02.08.04v.008c.021.021.04.04.08.04.44.181.88.36 1.24.533.621.269 1.42.537 2.4.715 1.24.18 2.661.267 4.28 0 .8-.18 1.6-.356 2.4-.713.52-.267 1.16-.533 1.863-.983 0 0-.8 1.248-2.94 1.872.44.621 1.06 1.333 1.06 1.333 3.659-.08 5.08-2.4 5.16-2.301 0-5.16-2.42-9.36-2.42-9.36-2.18-1.619-4.22-1.68-4.58-1.68zm.224 5.884c.937 0 1.693.8 1.693 1.78 0 .987-.76 1.787-1.693 1.787s-1.693-.8-1.693-1.779c.003-.987.764-1.784 1.693-1.788zm-6.057 0c.933 0 1.688.8 1.688 1.78 0 .987-.76 1.787-1.693 1.787s-1.693-.8-1.693-1.779c0-.987.76-1.784 1.699-1.788z"/></symbol>
<symbol id="mail" viewBox="0 0 32 32">
<path d="M29 4H3C1.35 4 0 5.35 0 7v20c0 1.65 1.35 3 3 3h26c1.65 0 3-1.35 3-3V7c0-1.65-1.35-3-3-3zM12.461 17.199 4 23.789V8.113l8.461 9.086zM5.512 8h20.976L16 15.875 5.512 8zm7.278 9.553L16 21l3.21-3.447L25.79 26H6.211l6.58-8.447zm6.749-.354L28 8.113v15.676l-8.461-6.59z"/></symbol>
<symbol id="location" viewBox="0 0 32 32">
<path d="M16 0C10.477 0 6 4.477 6 10c0 10 10 22 10 22s10-12 10-22c0-5.523-4.477-10-10-10zm0 16.125a6.125 6.125 0 1 1 0-12.25 6.125 6.125 0 0 1 0 12.25zM12.125 10a3.875 3.875 0 1 1 7.75 0 3.875 3.875 0 0 1-7.75 0z"/></symbol>
<symbol id="mobile" viewBox="0 0 32 32">
<path d="M23 0H9C7.35 0 6 1.35 6 3v26c0 1.65 1.35 3 3 3h14c1.65 0 3-1.35 3-3V3c0-1.65-1.35-3-3-3zM12 1.5h8v1h-8v-1zM16 30a2 2 0 1 1-.001-3.999A2 2 0 0 1 16 30zm8-6H8V4h16v20z"/></symbol>
<symbol id="telegram" viewBox="0 0 32 32">
<path fill="#2ca5e0" style="fill: var(--color9, #2ca5e0)" d="M16 0C7.162 0 0 7.162 0 16s7.162 16 16 16 16-7.163 16-16S24.837 0 16 0zm7.863 10.969-2.625 12.369c-.181.881-.712 1.087-1.45.681l-4-2.956-1.919 1.869c-.225.219-.4.4-.8.4-.519 0-.431-.194-.606-.688L11.1 18.169l-3.956-1.231c-.856-.262-.862-.85.194-1.269l15.412-5.95c.7-.319 1.381.169 1.113 1.25z"/></symbol>
<symbol id="github" viewBox="0 0 32 32">
<path d="M16 .395c-8.836 0-16 7.163-16 16 0 7.069 4.585 13.067 10.942 15.182.8.148 1.094-.347 1.094-.77 0-.381-.015-1.642-.022-2.979-4.452.968-5.391-1.888-5.391-1.888-.728-1.849-1.776-2.341-1.776-2.341-1.452-.993.11-.973.11-.973 1.606.113 2.452 1.649 2.452 1.649 1.427 2.446 3.743 1.739 4.656 1.33.143-1.034.558-1.74 1.016-2.14-3.554-.404-7.29-1.777-7.29-7.907 0-1.747.625-3.174 1.649-4.295-.166-.403-.714-2.03.155-4.234 0 0 1.344-.43 4.401 1.64a15.353 15.353 0 0 1 4.005-.539c1.359.006 2.729.184 4.008.539 3.054-2.07 4.395-1.64 4.395-1.64.871 2.204.323 3.831.157 4.234 1.026 1.12 1.647 2.548 1.647 4.295 0 6.145-3.743 7.498-7.306 7.895.574.497 1.085 1.47 1.085 2.963 0 2.141-.019 3.864-.019 4.391 0 .426.288.925 1.099.768C27.421 29.457 32 23.462 32 16.395c0-8.837-7.164-16-16-16z"/></symbol>
<symbol id="linkedin" viewBox="0 0 32 32">
<path fill="#0077b5" style="fill: var(--color10, #0077b5)" d="M29 0H3C1.35 0 0 1.35 0 3v26c0 1.65 1.35 3 3 3h26c1.65 0 3-1.35 3-3V3c0-1.65-1.35-3-3-3zM12 26H8V12h4v14zm-2-16c-1.106 0-2-.894-2-2s.894-2 2-2c1.106 0 2 .894 2 2s-.894 2-2 2zm16 16h-4v-8c0-1.106-.894-2-2-2s-2 .894-2 2v8h-4V12h4v2.481C18.825 13.35 20.087 12 21.5 12c2.488 0 4.5 2.238 4.5 5v9z"/></symbol>

<symbol id="icon-close_40px" viewBox="0 0 32 32">
<path d="M23.733 10.304L22.229 8.8l-5.963 5.963L10.303 8.8l-1.504 1.504 5.963 5.963-5.963 5.963 1.504 1.504 5.963-5.963 5.963 5.963 1.504-1.504-5.963-5.963 5.963-5.963z"/></symbol>
<symbol id="icon-menu_40px" viewBox="0 0 32 32">
<path d="M6.4 11.733V9.6h19.2v2.133H6.4zm0 5.334h19.2v-2.133H6.4v2.133zm0 5.333h19.2v-2.133H6.4V22.4z"/></symbol>


</defs>
</svg>